<!--
VK ID official web SDK logo. Source: https://github.com/VKCOM/vkid-web-sdk/blob/8ff76cfe59ea72e370c4c6c3b40712ecfd43aadd/src/widgets/oneTap/template.ts

Copyright © 2023 V Kontakte LLC
Permission is hereby granted, free of charge, to any person obtaining a copy of this software and associated documentation files (the “Software”), to deal in the Software without restriction, including without limitation the rights to use, copy, modify, merge, publish, distribute, sublicense, and/or sell copies of the Software, and to permit persons to whom the Software is furnished to do so, subject to the following conditions:
The above copyright notice and this permission notice shall be included in all copies or substantial portions of the Software.
THE SOFTWARE IS PROVIDED “AS IS”, WITHOUT WARRANTY OF ANY KIND, EXPRESS OR IMPLIED, INCLUDING BUT NOT LIMITED TO THE WARRANTIES OF MERCHANTABILITY, FITNESS FOR A PARTICULAR PURPOSE AND NONINFRINGEMENT. IN NO EVENT SHALL THE AUTHORS OR COPYRIGHT HOLDERS BE LIABLE FOR ANY CLAIM, DAMAGES OR OTHER LIABILITY, WHETHER IN AN ACTION OF CONTRACT, TORT OR OTHERWISE, ARISING FROM, OUT OF OR IN CONNECTION WITH THE SOFTWARE OR THE USE OR OTHER DEALINGS IN THE SOFTWARE.
-->
<svg width="24" height="24" viewBox="0 0 24 24" fill="none" xmlns="http://www.w3.org/2000/svg">
    <path id="logoBg" fill-rule="evenodd" clip-rule="evenodd" d="M4.2653 4.2653C3 5.5306 3 7.56707 3 11.64V12.36C3 16.4329 3 18.4694 4.2653 19.7347C5.5306 21 7.56706 21 11.64 21H12.36C16.4329 21 18.4694 21 19.7347 19.7347C21 18.4694 21 16.4329 21 12.36V11.64C21 7.56707 21 5.5306 19.7347 4.2653C18.4694 3 16.4329 3 12.36 3H11.64C7.56706 3 5.5306 3 4.2653 4.2653Z" fill="white"/>
    <path id="logoIcon" d="M12.6095 16C8.55576 16 6.09636 13.1823 6 8.5H8.05309C8.1171 11.9395 9.67903 13.397 10.8764 13.6967V8.5H12.8439V11.4683C13.9988 11.3401 15.2076 9.98991 15.614 8.5H17.5505C17.2406 10.3321 15.9246 11.6823 14.9948 12.2392C15.9253 12.6895 17.4225 13.8682 18 16H15.8714C15.4219 14.5749 14.321 13.4712 12.8446 13.3213V16H12.6095Z" fill="#0077FF"/>
  </svg>
